<?xml version="1.0" encoding="utf-8"?>
<!-- Generator: Adobe Illustrator 17.0.0, SVG Export Plug-In . SVG Version: 6.00 Build 0)  -->
<!DOCTYPE svg PUBLIC "-//W3C//DTD SVG 1.1//EN" "http://www.w3.org/Graphics/SVG/1.1/DTD/svg11.dtd">
<svg version="1.1" id="Layer_1" xmlns="http://www.w3.org/2000/svg" xmlns:xlink="http://www.w3.org/1999/xlink" x="0px" y="0px"
	 width="128px" height="128px" viewBox="0 0 128 128" enable-background="new 0 0 128 128" xml:space="preserve">
<g>
	<defs>
		<path id="SVGID_77_" d="M64,43c-2.761,0-5-2.238-5-5s2.239-5,5-5c2.761,0,5,2.238,5,5S66.761,43,64,43z M79,37
			c0-8.601-7.752-14-15-14c-7.249,0-15,5.399-15,14c0,9.782,15,26,15,26S79,46.782,79,37z M39.545,87.607
			c-0.54-0.217-0.95-0.36-0.947-1.14c0.036-9.374,0.053-22.377,0.079-22.648c0.384,0.109,15.339,5.458,22.48,8.015
			c0.631,0.226,0.955,0.477,0.952,1.248c-0.031,9.639-0.044,23.248-0.063,23.562C61.061,96.252,46.099,90.233,39.545,87.607z
			 M65.693,73.172c-0.001-0.593,0.01-1.025,0.731-1.288c7.372-2.679,22.441-8.195,22.691-8.253
			c0.019,0.393,0.04,13.367,0.071,22.547c0.002,0.805-0.243,1.166-0.984,1.462c-7.185,2.856-22.077,8.851-22.503,9.013
			C65.699,96.652,65.704,77.97,65.693,73.172z M78.894,56.658l0.211-0.316c-0.611,0.917-0.279,1.995,0.741,2.411l5.781,2.358
			l-21.75,7.964l-21.682-7.791l5.955-2.506c1.029-0.433,1.355-1.521,0.744-2.437l0.211,0.316c-0.611-0.917-1.939-1.338-2.968-0.942
			l-10.202,3.922C35.418,59.837,35,60.444,35,60.996V89.03c0,0.552,0.415,1.162,0.928,1.361l27.021,10.543
			c0.52,0.202,1.344,0.197,1.857-0.005l27.049-10.678c0.521-0.206,0.928-0.813,0.927-1.364l-0.047-27.984
			c-0.001-0.551-0.421-1.159-0.938-1.358l-9.933-3.826C80.835,55.322,79.505,55.742,78.894,56.658z M64,128
			C28.654,128,0,99.347,0,64S28.654,0,64,0s64,28.653,64,64S99.346,128,64,128z"/>
	</defs>
	<clipPath id="SVGID_1_">
		<use xlink:href="#SVGID_77_"  overflow="visible"/>
	</clipPath>
	<g clip-path="url(#SVGID_1_)">
		<defs>
			<rect id="SVGID_79_" width="558" height="128"/>
		</defs>
		<clipPath id="SVGID_2_">
			<use xlink:href="#SVGID_79_"  overflow="visible"/>
		</clipPath>
		<rect x="-5" y="-5" clip-path="url(#SVGID_2_)" fill="#1EB687" width="138" height="138"/>
	</g>
</g>
</svg>
